<?xml version="1.0" encoding="UTF-8" ?>
<!DOCTYPE svg PUBLIC "-//W3C//DTD SVG 1.1//EN" "http://www.w3.org/Graphics/SVG/1.1/DTD/svg11.dtd">
<svg  viewBox="0 0 74 53" version="1.1" xmlns="http://www.w3.org/2000/svg">
<path fill="#ffffff" d=" M 0.00 0.00 L 74.00 0.00 L 74.00 53.00 L 0.00 53.00 L 0.00 0.00 Z" />
<path fill="#ff5722" d=" M 17.12 8.12 C 22.44 8.01 27.77 7.80 33.09 8.13 C 35.00 8.26 36.47 9.59 38.00 10.58 C 39.52 9.58 40.99 8.26 42.90 8.13 C 48.21 7.80 53.55 8.03 58.87 8.10 C 58.94 13.98 59.35 19.91 58.73 25.76 C 57.46 28.34 55.06 30.13 53.04 32.09 C 50.01 35.34 45.12 32.84 41.49 34.54 C 39.58 35.91 39.12 38.44 37.97 40.37 C 36.69 38.12 36.14 34.41 33.01 34.05 C 27.75 33.59 22.46 34.02 17.19 33.83 C 16.84 25.27 16.96 16.69 17.12 8.12 Z" />
<path fill="#ffffff" d=" M 19.59 10.54 C 24.06 10.64 28.55 10.29 33.02 10.68 C 35.09 10.86 36.70 12.87 36.64 14.92 C 36.89 20.85 36.54 26.80 36.80 32.73 C 31.39 30.30 25.31 31.80 19.59 31.40 C 19.59 24.44 19.59 17.49 19.59 10.54 Z" />
<path fill="#ffffff" d=" M 39.35 14.92 C 39.29 12.85 40.90 10.82 43.02 10.67 C 47.47 10.30 51.94 10.64 56.40 10.54 C 56.41 15.15 56.50 19.77 56.26 24.38 C 53.97 24.44 51.66 24.44 49.39 24.84 C 49.39 26.98 49.38 29.12 49.32 31.26 C 45.90 31.30 42.37 31.20 39.20 32.72 C 39.46 26.79 39.11 20.85 39.35 14.92 Z" />
<path fill="#ffffff" d=" M 52.14 27.16 C 53.58 26.66 54.04 27.11 53.51 28.51 C 52.10 29.04 51.65 28.59 52.14 27.16 Z" />
<path fill="#ff5722" d=" M 17.14 36.33 C 22.05 36.08 27.00 35.96 31.92 36.24 C 32.34 36.46 33.20 36.91 33.62 37.13 C 28.76 37.51 23.85 37.53 18.98 37.31 C 18.52 37.07 17.60 36.57 17.14 36.33 Z" />
<path fill="#ff5722" d=" M 42.47 36.31 C 47.93 36.03 53.41 36.01 58.86 36.33 C 56.33 38.25 52.97 37.13 50.04 37.43 C 47.53 37.14 44.53 38.20 42.47 36.31 Z" />
<path fill="#ff5722" d=" M 16.66 39.87 C 21.76 39.47 26.90 39.52 32.02 39.65 C 34.48 39.49 36.30 41.24 38.00 42.74 C 39.71 41.27 41.50 39.48 43.95 39.65 C 49.08 39.52 54.23 39.47 59.35 39.87 C 59.11 40.38 58.64 41.41 58.40 41.93 C 53.58 42.52 48.71 41.84 43.88 42.19 C 41.62 42.33 40.32 44.95 38.03 44.97 C 36.04 45.10 34.76 43.39 33.40 42.23 C 28.13 41.89 22.84 42.47 17.59 41.93 C 17.36 41.41 16.89 40.38 16.66 39.87 Z" />
</svg>
